<?xml version="1.0" standalone="no"?>
<!DOCTYPE svg PUBLIC "-//W3C//DTD SVG 20010904//EN"
 "http://www.w3.org/TR/2001/REC-SVG-20010904/DTD/svg10.dtd">
<svg version="1.0" xmlns="http://www.w3.org/2000/svg"
 width="768.000000pt" height="768.000000pt" viewBox="0 0 768.000000 768.000000"
 preserveAspectRatio="xMidYMid meet">
<metadata>
Created by potrace 1.11, written by Peter Selinger 2001-2013
</metadata>
<g transform="translate(0.000000,768.000000) scale(0.100000,-0.100000)"
fill="#000000" stroke="none">
<path d="M3430 7106 l0 -574 -72 -17 c-170 -38 -459 -226 -599 -387 -112 -131
-196 -275 -223 -384 -28 -111 -49 -305 -43 -399 6 -100 45 -266 84 -359 13
-33 31 -91 39 -128 13 -61 13 -76 -2 -131 -8 -34 -24 -77 -35 -95 -11 -19 -35
-75 -55 -125 -19 -51 -50 -119 -68 -152 -19 -33 -46 -98 -60 -145 -15 -47 -34
-95 -42 -107 -34 -53 -96 -259 -135 -448 -43 -211 -12 -549 75 -817 87 -264
220 -482 408 -663 103 -100 123 -115 228 -167 116 -57 190 -78 362 -102 42 -6
80 -14 84 -18 4 -4 8 -384 9 -845 2 -461 3 -884 4 -940 l1 -103 45 0 45 0 0
315 c0 263 2 315 14 315 8 0 16 -6 18 -12 3 -7 4 -149 3 -315 l-1 -303 153 0
153 0 0 323 c0 177 4 327 8 333 4 6 21 15 39 18 94 21 129 114 67 182 -20 21
-32 25 -67 22 l-42 -3 -3 470 c-3 533 -9 495 82 495 146 0 347 53 481 126 88
48 261 159 270 174 4 6 25 23 48 37 84 53 205 184 300 326 64 96 154 315 193
470 62 244 34 672 -61 913 -100 256 -174 376 -356 576 -78 86 -117 149 -147
237 -36 105 -26 201 34 352 44 112 66 225 71 372 l6 137 116 2 c346 5 612 0
627 -13 18 -15 34 -49 98 -216 75 -194 145 -255 296 -256 126 -2 148 13 375
254 78 83 142 134 191 155 40 17 356 43 532 44 93 0 88 -2 232 89 l105 66 183
3 182 3 0 46 0 46 -183 -5 c-208 -6 -218 -9 -375 -111 l-82 -54 -208 -7 c-114
-4 -248 -11 -299 -16 -146 -15 -174 -32 -370 -223 -188 -182 -210 -195 -307
-182 -111 14 -148 50 -195 190 -77 229 -96 268 -144 284 -44 16 -890 14 -937
-2 -53 -18 -60 -42 -53 -192 6 -150 -5 -223 -67 -420 -51 -162 -58 -261 -26
-377 28 -102 69 -169 212 -344 19 -23 34 -45 34 -49 0 -5 11 -23 25 -41 43
-56 165 -289 165 -315 0 -4 12 -34 26 -66 53 -120 93 -448 73 -617 -4 -43 -6
-82 -4 -87 5 -8 2 -24 -40 -197 -27 -109 -86 -241 -151 -334 -68 -98 -124
-166 -152 -188 -15 -11 -52 -44 -83 -73 -127 -120 -244 -196 -369 -242 -84
-31 -242 -65 -300 -65 l-59 0 -5 43 c-10 80 -16 233 -17 437 l-1 205 47 6 c88
10 122 83 65 141 -26 25 -36 29 -73 26 l-42 -3 1 430 0 430 41 140 c53 178 90
272 163 411 32 60 67 141 79 178 23 76 28 190 11 295 -30 179 -177 331 -365
376 -36 8 -53 18 -62 36 -10 19 -13 297 -13 1252 l0 1227 -105 0 -105 0 0
-574z m-2 -1316 l-3 -634 -72 -43 c-100 -61 -210 -180 -243 -264 -21 -54 -25
-80 -24 -169 0 -144 17 -198 133 -434 101 -205 176 -397 190 -489 5 -29 7
-263 5 -521 -1 -258 1 -489 5 -513 9 -44 -1 -277 -22 -553 l-12 -155 -60 2
c-144 3 -331 62 -447 141 -86 58 -229 205 -292 301 -81 122 -198 370 -231 493
-58 208 -77 533 -42 718 20 106 69 270 102 345 13 28 46 106 74 175 29 69 60
141 70 160 10 19 26 59 36 88 9 29 33 83 52 120 86 164 88 273 9 464 -54 129
-82 340 -65 488 25 221 70 345 180 496 53 73 210 216 309 281 129 86 316 164
343 143 4 -3 6 -291 5 -640z m1220 -332 c1 -95 -11 -180 -46 -304 -21 -77 -47
-134 -36 -79 3 17 12 48 20 70 27 76 40 200 44 408 0 5 4 6 8 3 5 -3 9 -47 10
-98z m-107 -489 c-17 -83 -22 -174 -11 -224 12 -56 64 -184 93 -230 17 -27 16
-27 -12 5 -101 112 -138 311 -85 452 22 57 28 56 15 -3z m229 -631 c86 -105
122 -157 164 -243 109 -220 138 -301 170 -464 60 -311 55 -420 -29 -741 -77
-291 -263 -530 -580 -744 -196 -134 -342 -189 -542 -208 -68 -6 -126 -9 -129
-5 -15 15 12 27 62 27 69 0 219 32 321 69 117 43 237 123 378 251 276 250 409
474 472 795 24 124 24 430 1 530 -9 39 -28 118 -42 176 -15 65 -37 127 -56
160 -18 29 -48 87 -67 129 -41 90 -106 199 -174 295 -107 150 -89 140 51 -27z
m-1320 -195 c68 -21 202 -18 283 7 38 12 71 19 75 16 5 -5 -74 -266 -98 -324
-10 -22 -14 -23 -103 -19 -51 2 -98 7 -105 11 -6 4 -18 28 -26 54 -24 79 -72
205 -89 239 -21 40 -21 47 1 38 9 -4 37 -14 62 -22z m235 -568 l0 -150 -78 -3
c-50 -2 -84 1 -93 9 -11 9 -14 43 -14 149 0 75 3 140 7 144 4 4 46 5 93 4 l85
-3 0 -150z m0 -495 l0 -225 -84 -3 c-61 -2 -87 1 -92 10 -10 16 -12 432 -2
442 4 4 46 5 93 4 l85 -3 0 -225z m14 -705 c20 -469 22 -428 -19 -470 -19 -20
-48 -45 -65 -55 -16 -10 -44 -43 -61 -72 l-32 -53 -6 -330 c-8 -432 -17 -645
-28 -645 -4 0 -9 192 -10 428 -2 538 0 650 18 1007 8 159 14 329 14 378 0 124
3 128 98 125 l77 -3 14 -310z"/>
</g>
</svg>
